<mxfile host="app.diagrams.net" agent="Mozilla/5.0 (X11; Ubuntu; Linux x86_64; rv:130.0) Gecko/20100101 Firefox/130.0" version="24.7.13">
  <diagram name="Page-1" id="WIzkgsFBizQJKrMtI0oR">
    <mxGraphModel dx="1645" dy="805" grid="1" gridSize="10" guides="1" tooltips="1" connect="1" arrows="1" fold="1" page="1" pageScale="1" pageWidth="1654" pageHeight="1169" math="0" shadow="0">
      <root>
        <mxCell id="0" />
        <mxCell id="1" parent="0" />
        <mxCell id="rcdddzgoVTeUVf7209Ef-74" value="ILLUSION HACKATHON ENTITIES DIAGRAM" style="text;html=1;align=center;verticalAlign=middle;whiteSpace=wrap;rounded=0;fontStyle=1;fontSize=37;" parent="1" vertex="1">
          <mxGeometry x="309" y="20" width="941" height="40" as="geometry" />
        </mxCell>
        <mxCell id="15M1-edb_IW5XRDmWn_Y-51" style="edgeStyle=orthogonalEdgeStyle;rounded=0;orthogonalLoop=1;jettySize=auto;html=1;entryX=1;entryY=0.25;entryDx=0;entryDy=0;" edge="1" parent="1" source="15M1-edb_IW5XRDmWn_Y-7" target="rcdddzgoVTeUVf7209Ef-18">
          <mxGeometry relative="1" as="geometry" />
        </mxCell>
        <mxCell id="15M1-edb_IW5XRDmWn_Y-7" value="user_category" style="swimlane;childLayout=stackLayout;horizontal=1;startSize=50;horizontalStack=0;rounded=1;fontSize=14;fontStyle=0;strokeWidth=2;resizeParent=0;resizeLast=1;shadow=0;dashed=0;align=center;arcSize=4;whiteSpace=wrap;html=1;" vertex="1" parent="1">
          <mxGeometry x="890" y="220" width="160" height="120" as="geometry" />
        </mxCell>
        <mxCell id="15M1-edb_IW5XRDmWn_Y-8" value="+user_category_id int (PK)&lt;br&gt;+user_category string" style="align=left;strokeColor=none;fillColor=none;spacingLeft=4;fontSize=12;verticalAlign=top;resizable=0;rotatable=0;part=1;html=1;" vertex="1" parent="15M1-edb_IW5XRDmWn_Y-7">
          <mxGeometry y="50" width="160" height="70" as="geometry" />
        </mxCell>
        <mxCell id="15M1-edb_IW5XRDmWn_Y-9" value="verification_track" style="swimlane;childLayout=stackLayout;horizontal=1;startSize=50;horizontalStack=0;rounded=1;fontSize=14;fontStyle=0;strokeWidth=2;resizeParent=0;resizeLast=1;shadow=0;dashed=0;align=center;arcSize=4;whiteSpace=wrap;html=1;" vertex="1" parent="1">
          <mxGeometry x="660" y="110" width="180" height="120" as="geometry" />
        </mxCell>
        <mxCell id="15M1-edb_IW5XRDmWn_Y-10" value="+verification_track_id int (PK)&lt;br&gt;+user_reg_id int (FK)&lt;br&gt;&lt;div&gt;+validation_code int&lt;br&gt;&lt;/div&gt;&lt;div&gt;+is_validated boolean &lt;br&gt;&lt;/div&gt;" style="align=left;strokeColor=none;fillColor=none;spacingLeft=4;fontSize=12;verticalAlign=top;resizable=0;rotatable=0;part=1;html=1;" vertex="1" parent="15M1-edb_IW5XRDmWn_Y-9">
          <mxGeometry y="50" width="180" height="70" as="geometry" />
        </mxCell>
        <mxCell id="15M1-edb_IW5XRDmWn_Y-11" value="learning_path_track" style="swimlane;childLayout=stackLayout;horizontal=1;startSize=50;horizontalStack=0;rounded=1;fontSize=14;fontStyle=0;strokeWidth=2;resizeParent=0;resizeLast=1;shadow=0;dashed=0;align=center;arcSize=4;whiteSpace=wrap;html=1;" vertex="1" parent="1">
          <mxGeometry x="280" y="910" width="160" height="140" as="geometry" />
        </mxCell>
        <mxCell id="15M1-edb_IW5XRDmWn_Y-12" value="+learning_path_id&lt;br&gt;+learning_path_title&lt;br&gt;&lt;div&gt;+description&lt;/div&gt;&lt;div&gt;+created_timestamp&lt;/div&gt;&lt;div&gt;+updated_timestamp&lt;br&gt;&lt;/div&gt;" style="align=left;strokeColor=none;fillColor=none;spacingLeft=4;fontSize=12;verticalAlign=top;resizable=0;rotatable=0;part=1;html=1;" vertex="1" parent="15M1-edb_IW5XRDmWn_Y-11">
          <mxGeometry y="50" width="160" height="90" as="geometry" />
        </mxCell>
        <mxCell id="15M1-edb_IW5XRDmWn_Y-13" value="assignment" style="swimlane;childLayout=stackLayout;horizontal=1;startSize=50;horizontalStack=0;rounded=1;fontSize=14;fontStyle=0;strokeWidth=2;resizeParent=0;resizeLast=1;shadow=0;dashed=0;align=center;arcSize=4;whiteSpace=wrap;html=1;" vertex="1" parent="1">
          <mxGeometry x="905" y="370" width="160" height="170" as="geometry" />
        </mxCell>
        <mxCell id="15M1-edb_IW5XRDmWn_Y-14" value="+assignment_id int (PK)&lt;br&gt;+course_id int (FK)&lt;br&gt;&lt;div&gt;+instructor_id int (FK)&lt;/div&gt;&lt;div&gt;+title&lt;/div&gt;&lt;div&gt;+description&lt;/div&gt;&lt;div&gt;+due_date&lt;/div&gt;&lt;div&gt;+created_timestamp&lt;/div&gt;&lt;div&gt;+updated_timestamp&lt;br&gt;&lt;/div&gt;" style="align=left;strokeColor=none;fillColor=none;spacingLeft=4;fontSize=12;verticalAlign=top;resizable=0;rotatable=0;part=1;html=1;" vertex="1" parent="15M1-edb_IW5XRDmWn_Y-13">
          <mxGeometry y="50" width="160" height="120" as="geometry" />
        </mxCell>
        <mxCell id="15M1-edb_IW5XRDmWn_Y-15" value="assignment_submission" style="swimlane;childLayout=stackLayout;horizontal=1;startSize=50;horizontalStack=0;rounded=1;fontSize=14;fontStyle=0;strokeWidth=2;resizeParent=0;resizeLast=1;shadow=0;dashed=0;align=center;arcSize=4;whiteSpace=wrap;html=1;" vertex="1" parent="1">
          <mxGeometry x="890" y="580" width="210" height="160" as="geometry" />
        </mxCell>
        <mxCell id="15M1-edb_IW5XRDmWn_Y-16" value="+assignment_submission_id int (PK)&lt;br&gt;+user_id int (FK)&lt;br&gt;&lt;div&gt;+assignment_content text&lt;/div&gt;&lt;div&gt;+scores&lt;/div&gt;&lt;div&gt;+submitted_timestamp&lt;/div&gt;&lt;div&gt;+status&lt;br&gt;&lt;/div&gt;" style="align=left;strokeColor=none;fillColor=none;spacingLeft=4;fontSize=12;verticalAlign=top;resizable=0;rotatable=0;part=1;html=1;" vertex="1" parent="15M1-edb_IW5XRDmWn_Y-15">
          <mxGeometry y="50" width="210" height="110" as="geometry" />
        </mxCell>
        <mxCell id="15M1-edb_IW5XRDmWn_Y-17" value="event_schedules" style="swimlane;childLayout=stackLayout;horizontal=1;startSize=50;horizontalStack=0;rounded=1;fontSize=14;fontStyle=0;strokeWidth=2;resizeParent=0;resizeLast=1;shadow=0;dashed=0;align=center;arcSize=4;whiteSpace=wrap;html=1;" vertex="1" parent="1">
          <mxGeometry x="560" y="950" width="190" height="180" as="geometry" />
        </mxCell>
        <mxCell id="15M1-edb_IW5XRDmWn_Y-18" value="+event_schedule_id int (PK)&lt;br&gt;+event_content text&lt;br&gt;&lt;div&gt;+event_start_date date&lt;br&gt;&lt;/div&gt;&lt;div&gt;+event_end_date date&lt;br&gt;&lt;/div&gt;&lt;div&gt;+submitted_by_user_id int (FK)&lt;br&gt;&lt;/div&gt;&lt;div&gt;+submitted_timestamp timestamp&lt;br&gt;&lt;/div&gt;" style="align=left;strokeColor=none;fillColor=none;spacingLeft=4;fontSize=12;verticalAlign=top;resizable=0;rotatable=0;part=1;html=1;" vertex="1" parent="15M1-edb_IW5XRDmWn_Y-17">
          <mxGeometry y="50" width="190" height="130" as="geometry" />
        </mxCell>
        <mxCell id="15M1-edb_IW5XRDmWn_Y-19" value="setting_category" style="swimlane;childLayout=stackLayout;horizontal=1;startSize=50;horizontalStack=0;rounded=1;fontSize=14;fontStyle=0;strokeWidth=2;resizeParent=0;resizeLast=1;shadow=0;dashed=0;align=center;arcSize=4;whiteSpace=wrap;html=1;" vertex="1" parent="1">
          <mxGeometry x="1460" y="535" width="160" height="120" as="geometry" />
        </mxCell>
        <mxCell id="15M1-edb_IW5XRDmWn_Y-20" value="+setting_category_id int (PK)&lt;br&gt;+name string&lt;br&gt;+description text" style="align=left;strokeColor=none;fillColor=none;spacingLeft=4;fontSize=12;verticalAlign=top;resizable=0;rotatable=0;part=1;html=1;" vertex="1" parent="15M1-edb_IW5XRDmWn_Y-19">
          <mxGeometry y="50" width="160" height="70" as="geometry" />
        </mxCell>
        <mxCell id="15M1-edb_IW5XRDmWn_Y-21" style="edgeStyle=orthogonalEdgeStyle;rounded=0;orthogonalLoop=1;jettySize=auto;html=1;exitX=0.5;exitY=0;exitDx=0;exitDy=0;entryX=0;entryY=0.75;entryDx=0;entryDy=0;" edge="1" parent="1" source="15M1-edb_IW5XRDmWn_Y-22" target="15M1-edb_IW5XRDmWn_Y-27">
          <mxGeometry relative="1" as="geometry" />
        </mxCell>
        <mxCell id="15M1-edb_IW5XRDmWn_Y-22" value="quiz" style="swimlane;childLayout=stackLayout;horizontal=1;startSize=50;horizontalStack=0;rounded=1;fontSize=14;fontStyle=0;strokeWidth=2;resizeParent=0;resizeLast=1;shadow=0;dashed=0;align=center;arcSize=4;whiteSpace=wrap;html=1;" vertex="1" parent="1">
          <mxGeometry x="1140" y="92" width="190" height="190" as="geometry" />
        </mxCell>
        <mxCell id="15M1-edb_IW5XRDmWn_Y-23" value="+quiz_id int (PK)&lt;br&gt;+course_id int (FK)&lt;br&gt;&lt;div&gt;+quiz_title string&lt;br&gt;&lt;/div&gt;&lt;div&gt;+description text&lt;br&gt;&lt;/div&gt;&lt;div&gt;+time_limit int&lt;br&gt;&lt;/div&gt;&lt;div&gt;+pass_marks float&lt;br&gt;&lt;/div&gt;&lt;div&gt;+created_timestamp timestamp &lt;br&gt;&lt;/div&gt;&lt;div&gt;+updated_timestamp timestamp&lt;br&gt;&lt;/div&gt;" style="align=left;strokeColor=none;fillColor=none;spacingLeft=4;fontSize=12;verticalAlign=top;resizable=0;rotatable=0;part=1;html=1;" vertex="1" parent="15M1-edb_IW5XRDmWn_Y-22">
          <mxGeometry y="50" width="190" height="140" as="geometry" />
        </mxCell>
        <mxCell id="15M1-edb_IW5XRDmWn_Y-24" value="question_type" style="swimlane;childLayout=stackLayout;horizontal=1;startSize=50;horizontalStack=0;rounded=1;fontSize=14;fontStyle=0;strokeWidth=2;resizeParent=0;resizeLast=1;shadow=0;dashed=0;align=center;arcSize=4;whiteSpace=wrap;html=1;" vertex="1" parent="1">
          <mxGeometry x="1370" y="92" width="160" height="120" as="geometry" />
        </mxCell>
        <mxCell id="15M1-edb_IW5XRDmWn_Y-25" value="+question_type_id&lt;br&gt;+question_type" style="align=left;strokeColor=none;fillColor=none;spacingLeft=4;fontSize=12;verticalAlign=top;resizable=0;rotatable=0;part=1;html=1;" vertex="1" parent="15M1-edb_IW5XRDmWn_Y-24">
          <mxGeometry y="50" width="160" height="70" as="geometry" />
        </mxCell>
        <mxCell id="15M1-edb_IW5XRDmWn_Y-26" value="questions" style="swimlane;childLayout=stackLayout;horizontal=1;startSize=50;horizontalStack=0;rounded=1;fontSize=14;fontStyle=0;strokeWidth=2;resizeParent=0;resizeLast=1;shadow=0;dashed=0;align=center;arcSize=4;whiteSpace=wrap;html=1;" vertex="1" parent="1">
          <mxGeometry x="1394" y="262" width="160" height="130" as="geometry" />
        </mxCell>
        <mxCell id="15M1-edb_IW5XRDmWn_Y-27" value="+question_id int (PK)&lt;br&gt;+question_type_id int (FK)&lt;br&gt;&lt;div&gt;+quiz_id int (FK)&lt;/div&gt;&lt;div&gt;+content text&lt;/div&gt;&lt;div&gt;+points int &lt;br&gt;&lt;/div&gt;&lt;div&gt;&lt;br&gt;&lt;/div&gt;" style="align=left;strokeColor=none;fillColor=none;spacingLeft=4;fontSize=12;verticalAlign=top;resizable=0;rotatable=0;part=1;html=1;" vertex="1" parent="15M1-edb_IW5XRDmWn_Y-26">
          <mxGeometry y="50" width="160" height="80" as="geometry" />
        </mxCell>
        <mxCell id="15M1-edb_IW5XRDmWn_Y-28" value="user_answers" style="swimlane;childLayout=stackLayout;horizontal=1;startSize=50;horizontalStack=0;rounded=1;fontSize=14;fontStyle=0;strokeWidth=2;resizeParent=0;resizeLast=1;shadow=0;dashed=0;align=center;arcSize=4;whiteSpace=wrap;html=1;" vertex="1" parent="1">
          <mxGeometry x="890" y="70" width="160" height="120" as="geometry" />
        </mxCell>
        <mxCell id="15M1-edb_IW5XRDmWn_Y-29" value="+user_answer_id int (PK)&lt;br&gt;+question_id int (FK)&lt;br&gt;&lt;div&gt;+answer string&lt;/div&gt;&lt;div&gt;+is_correct boolean&lt;br&gt;&lt;/div&gt;" style="align=left;strokeColor=none;fillColor=none;spacingLeft=4;fontSize=12;verticalAlign=top;resizable=0;rotatable=0;part=1;html=1;" vertex="1" parent="15M1-edb_IW5XRDmWn_Y-28">
          <mxGeometry y="50" width="160" height="70" as="geometry" />
        </mxCell>
        <mxCell id="15M1-edb_IW5XRDmWn_Y-30" style="edgeStyle=orthogonalEdgeStyle;rounded=0;orthogonalLoop=1;jettySize=auto;html=1;entryX=0.5;entryY=0;entryDx=0;entryDy=0;" edge="1" parent="1" source="15M1-edb_IW5XRDmWn_Y-25" target="15M1-edb_IW5XRDmWn_Y-26">
          <mxGeometry relative="1" as="geometry" />
        </mxCell>
        <mxCell id="15M1-edb_IW5XRDmWn_Y-31" value="1,1" style="text;html=1;align=center;verticalAlign=middle;whiteSpace=wrap;rounded=0;" vertex="1" parent="1">
          <mxGeometry x="1430" y="212" width="60" height="30" as="geometry" />
        </mxCell>
        <mxCell id="15M1-edb_IW5XRDmWn_Y-32" value="1,1" style="text;html=1;align=center;verticalAlign=middle;whiteSpace=wrap;rounded=0;" vertex="1" parent="1">
          <mxGeometry x="1460" y="242" width="60" height="30" as="geometry" />
        </mxCell>
        <mxCell id="15M1-edb_IW5XRDmWn_Y-33" value="1,1" style="text;html=1;align=center;verticalAlign=middle;whiteSpace=wrap;rounded=0;" vertex="1" parent="1">
          <mxGeometry x="1186" y="70" width="60" height="30" as="geometry" />
        </mxCell>
        <mxCell id="15M1-edb_IW5XRDmWn_Y-34" value="1,n" style="text;html=1;align=center;verticalAlign=middle;whiteSpace=wrap;rounded=0;" vertex="1" parent="1">
          <mxGeometry x="1334" y="370" width="60" height="30" as="geometry" />
        </mxCell>
        <mxCell id="15M1-edb_IW5XRDmWn_Y-35" style="edgeStyle=orthogonalEdgeStyle;rounded=0;orthogonalLoop=1;jettySize=auto;html=1;entryX=1;entryY=0.5;entryDx=0;entryDy=0;" edge="1" parent="1" source="15M1-edb_IW5XRDmWn_Y-23" target="15M1-edb_IW5XRDmWn_Y-28">
          <mxGeometry relative="1" as="geometry" />
        </mxCell>
        <mxCell id="15M1-edb_IW5XRDmWn_Y-36" value="1,1" style="text;html=1;align=center;verticalAlign=middle;whiteSpace=wrap;rounded=0;" vertex="1" parent="1">
          <mxGeometry x="1090" y="182" width="60" height="30" as="geometry" />
        </mxCell>
        <mxCell id="15M1-edb_IW5XRDmWn_Y-37" value="1,n" style="text;html=1;align=center;verticalAlign=middle;whiteSpace=wrap;rounded=0;" vertex="1" parent="1">
          <mxGeometry x="1040" y="110" width="60" height="30" as="geometry" />
        </mxCell>
        <mxCell id="15M1-edb_IW5XRDmWn_Y-67" style="edgeStyle=orthogonalEdgeStyle;rounded=0;orthogonalLoop=1;jettySize=auto;html=1;exitX=0;exitY=0.25;exitDx=0;exitDy=0;entryX=1;entryY=0.5;entryDx=0;entryDy=0;" edge="1" parent="1" source="15M1-edb_IW5XRDmWn_Y-38" target="15M1-edb_IW5XRDmWn_Y-41">
          <mxGeometry relative="1" as="geometry" />
        </mxCell>
        <mxCell id="15M1-edb_IW5XRDmWn_Y-38" value="setting" style="swimlane;childLayout=stackLayout;horizontal=1;startSize=50;horizontalStack=0;rounded=1;fontSize=14;fontStyle=0;strokeWidth=2;resizeParent=0;resizeLast=1;shadow=0;dashed=0;align=center;arcSize=4;whiteSpace=wrap;html=1;" vertex="1" parent="1">
          <mxGeometry x="1410" y="757" width="160" height="150" as="geometry" />
        </mxCell>
        <mxCell id="15M1-edb_IW5XRDmWn_Y-39" value="+setting_id int (PK)&lt;br&gt;+setting_category_id int (FK)&lt;br&gt;&lt;div&gt;+name string &lt;br&gt;&lt;/div&gt;&lt;div&gt;+description text&lt;br&gt;&lt;/div&gt;&lt;div&gt;+data_type string&lt;br&gt;&lt;/div&gt;&lt;div&gt;+default_value string&lt;br&gt;&lt;/div&gt;" style="align=left;strokeColor=none;fillColor=none;spacingLeft=4;fontSize=12;verticalAlign=top;resizable=0;rotatable=0;part=1;html=1;" vertex="1" parent="15M1-edb_IW5XRDmWn_Y-38">
          <mxGeometry y="50" width="160" height="100" as="geometry" />
        </mxCell>
        <mxCell id="15M1-edb_IW5XRDmWn_Y-40" value="user_setting" style="swimlane;childLayout=stackLayout;horizontal=1;startSize=50;horizontalStack=0;rounded=1;fontSize=14;fontStyle=0;strokeWidth=2;resizeParent=0;resizeLast=1;shadow=0;dashed=0;align=center;arcSize=4;whiteSpace=wrap;html=1;" vertex="1" parent="1">
          <mxGeometry x="1230" y="520" width="160" height="120" as="geometry" />
        </mxCell>
        <mxCell id="15M1-edb_IW5XRDmWn_Y-41" value="+user_setting_id&lt;br&gt;+reg_user_id&lt;br&gt;+setting_id" style="align=left;strokeColor=none;fillColor=none;spacingLeft=4;fontSize=12;verticalAlign=top;resizable=0;rotatable=0;part=1;html=1;" vertex="1" parent="15M1-edb_IW5XRDmWn_Y-40">
          <mxGeometry y="50" width="160" height="70" as="geometry" />
        </mxCell>
        <mxCell id="15M1-edb_IW5XRDmWn_Y-42" value="system_setting" style="swimlane;childLayout=stackLayout;horizontal=1;startSize=50;horizontalStack=0;rounded=1;fontSize=14;fontStyle=0;strokeWidth=2;resizeParent=0;resizeLast=1;shadow=0;dashed=0;align=center;arcSize=4;whiteSpace=wrap;html=1;" vertex="1" parent="1">
          <mxGeometry x="1155" y="790" width="160" height="120" as="geometry" />
        </mxCell>
        <mxCell id="15M1-edb_IW5XRDmWn_Y-43" value="+system_setting_id int (PK)&lt;br&gt;+setting_id int (FK)&lt;br&gt;&lt;div&gt;+last_updated_by_user_id&lt;/div&gt;&lt;div&gt;+last_updated_timestamp &lt;br&gt;&lt;/div&gt;" style="align=left;strokeColor=none;fillColor=none;spacingLeft=4;fontSize=12;verticalAlign=top;resizable=0;rotatable=0;part=1;html=1;" vertex="1" parent="15M1-edb_IW5XRDmWn_Y-42">
          <mxGeometry y="50" width="160" height="70" as="geometry" />
        </mxCell>
        <mxCell id="15M1-edb_IW5XRDmWn_Y-44" value="review" style="swimlane;childLayout=stackLayout;horizontal=1;startSize=50;horizontalStack=0;rounded=1;fontSize=14;fontStyle=0;strokeWidth=2;resizeParent=0;resizeLast=1;shadow=0;dashed=0;align=center;arcSize=4;whiteSpace=wrap;html=1;" vertex="1" parent="1">
          <mxGeometry x="900" y="770" width="170" height="180" as="geometry" />
        </mxCell>
        <mxCell id="15M1-edb_IW5XRDmWn_Y-45" value="+review_id int (PK)&lt;br&gt;+reg_user_id int (FK)&lt;br&gt;&lt;div&gt;+course_id int (FK)&lt;/div&gt;&lt;div&gt;+rating int &lt;br&gt;&lt;/div&gt;&lt;div&gt;+content text&lt;/div&gt;&lt;div&gt;+created_timestamp datetime&lt;/div&gt;&lt;div&gt;+updated_timestamp datetime&lt;/div&gt;&lt;div&gt;+is_verified boolean&lt;/div&gt;&lt;div&gt;&lt;br&gt;&lt;/div&gt;" style="align=left;strokeColor=none;fillColor=none;spacingLeft=4;fontSize=12;verticalAlign=top;resizable=0;rotatable=0;part=1;html=1;" vertex="1" parent="15M1-edb_IW5XRDmWn_Y-44">
          <mxGeometry y="50" width="170" height="130" as="geometry" />
        </mxCell>
        <mxCell id="15M1-edb_IW5XRDmWn_Y-46" value="review_response" style="swimlane;childLayout=stackLayout;horizontal=1;startSize=50;horizontalStack=0;rounded=1;fontSize=14;fontStyle=0;strokeWidth=2;resizeParent=0;resizeLast=1;shadow=0;dashed=0;align=center;arcSize=4;whiteSpace=wrap;html=1;" vertex="1" parent="1">
          <mxGeometry x="1146" y="940" width="184" height="150" as="geometry" />
        </mxCell>
        <mxCell id="15M1-edb_IW5XRDmWn_Y-47" value="+review_response_id int (PK)&lt;br&gt;+review_id int (FK)&lt;br&gt;&lt;div&gt;+instructor_id int (FK)&lt;/div&gt;&lt;div&gt;+content text&lt;/div&gt;&lt;div&gt;+created_timestamp datetime &lt;br&gt;&lt;/div&gt;" style="align=left;strokeColor=none;fillColor=none;spacingLeft=4;fontSize=12;verticalAlign=top;resizable=0;rotatable=0;part=1;html=1;" vertex="1" parent="15M1-edb_IW5XRDmWn_Y-46">
          <mxGeometry y="50" width="184" height="100" as="geometry" />
        </mxCell>
        <mxCell id="15M1-edb_IW5XRDmWn_Y-48" style="edgeStyle=orthogonalEdgeStyle;rounded=0;orthogonalLoop=1;jettySize=auto;html=1;exitX=0.75;exitY=1;exitDx=0;exitDy=0;" edge="1" parent="1" source="rcdddzgoVTeUVf7209Ef-62">
          <mxGeometry relative="1" as="geometry">
            <mxPoint x="655" y="954.2857142857143" as="targetPoint" />
            <Array as="points">
              <mxPoint x="718" y="490" />
              <mxPoint x="800" y="490" />
              <mxPoint x="800" y="730" />
              <mxPoint x="790" y="730" />
              <mxPoint x="790" y="910" />
              <mxPoint x="655" y="910" />
            </Array>
          </mxGeometry>
        </mxCell>
        <object label="resources" id="rcdddzgoVTeUVf7209Ef-29">
          <mxCell style="swimlane;childLayout=stackLayout;horizontal=1;startSize=50;horizontalStack=0;rounded=1;fontSize=14;fontStyle=0;strokeWidth=2;resizeParent=0;resizeLast=1;shadow=0;dashed=0;align=center;arcSize=4;whiteSpace=wrap;html=1;" parent="1" vertex="1">
            <mxGeometry x="40" y="580" width="180" height="120" as="geometry" />
          </mxCell>
        </object>
        <mxCell id="rcdddzgoVTeUVf7209Ef-30" value="+resource_id&amp;nbsp; int (PK)&lt;br&gt;+lesson_id&amp;nbsp; int (FK)&lt;br&gt;&lt;div&gt;+resource_title varchar&lt;br&gt;&lt;/div&gt;&lt;div&gt;+resource_link text&lt;/div&gt;&lt;div&gt;&amp;nbsp;&lt;br&gt;&lt;/div&gt;&lt;div&gt;&lt;br&gt;&lt;/div&gt;" style="align=left;strokeColor=none;fillColor=none;spacingLeft=4;fontSize=12;verticalAlign=top;resizable=0;rotatable=0;part=1;html=1;" parent="rcdddzgoVTeUVf7209Ef-29" vertex="1">
          <mxGeometry y="50" width="180" height="70" as="geometry" />
        </mxCell>
        <mxCell id="rcdddzgoVTeUVf7209Ef-48" style="edgeStyle=orthogonalEdgeStyle;rounded=0;orthogonalLoop=1;jettySize=auto;html=1;exitX=0.006;exitY=0.169;exitDx=0;exitDy=0;exitPerimeter=0;" parent="1" source="rcdddzgoVTeUVf7209Ef-20" target="rcdddzgoVTeUVf7209Ef-29" edge="1">
          <mxGeometry relative="1" as="geometry" />
        </mxCell>
        <mxCell id="rcdddzgoVTeUVf7209Ef-63" style="edgeStyle=orthogonalEdgeStyle;rounded=0;orthogonalLoop=1;jettySize=auto;html=1;entryX=0.75;entryY=0;entryDx=0;entryDy=0;" parent="1" source="rcdddzgoVTeUVf7209Ef-13" target="rcdddzgoVTeUVf7209Ef-17" edge="1">
          <mxGeometry relative="1" as="geometry">
            <Array as="points">
              <mxPoint x="760" y="250" />
            </Array>
          </mxGeometry>
        </mxCell>
        <mxCell id="rcdddzgoVTeUVf7209Ef-13" value="user_login_details" style="swimlane;childLayout=stackLayout;horizontal=1;startSize=50;horizontalStack=0;rounded=1;fontSize=14;fontStyle=0;strokeWidth=2;resizeParent=0;resizeLast=1;shadow=0;dashed=0;align=center;arcSize=4;whiteSpace=wrap;html=1;" parent="1" vertex="1">
          <mxGeometry x="400" y="140" width="160" height="170" as="geometry" />
        </mxCell>
        <mxCell id="rcdddzgoVTeUVf7209Ef-14" value="+user_login_detail_id (PK)&lt;br&gt;+username&lt;br&gt;&lt;div&gt;+pw&lt;/div&gt;&lt;div&gt;+user_registration_id&lt;/div&gt;&lt;div&gt;+last_login_timestamp&lt;/div&gt;&lt;div&gt;+last_logout_timestamp&lt;/div&gt;&lt;div&gt;+login_ip&lt;/div&gt;&lt;div&gt;+user_status&lt;br&gt;&lt;/div&gt;" style="align=left;strokeColor=none;fillColor=none;spacingLeft=4;fontSize=12;verticalAlign=top;resizable=0;rotatable=0;part=1;html=1;" parent="rcdddzgoVTeUVf7209Ef-13" vertex="1">
          <mxGeometry y="50" width="160" height="120" as="geometry" />
        </mxCell>
        <mxCell id="15M1-edb_IW5XRDmWn_Y-5" style="edgeStyle=orthogonalEdgeStyle;rounded=0;orthogonalLoop=1;jettySize=auto;html=1;exitX=0.75;exitY=0;exitDx=0;exitDy=0;" edge="1" parent="rcdddzgoVTeUVf7209Ef-13" source="rcdddzgoVTeUVf7209Ef-14" target="rcdddzgoVTeUVf7209Ef-13">
          <mxGeometry relative="1" as="geometry" />
        </mxCell>
        <mxCell id="rcdddzgoVTeUVf7209Ef-17" value="user_registration" style="swimlane;childLayout=stackLayout;horizontal=1;startSize=50;horizontalStack=0;rounded=1;fontSize=14;fontStyle=0;strokeWidth=2;resizeParent=0;resizeLast=1;shadow=0;dashed=0;align=center;arcSize=4;whiteSpace=wrap;html=1;" parent="1" vertex="1">
          <mxGeometry x="640" y="310" width="160" height="150" as="geometry" />
        </mxCell>
        <mxCell id="rcdddzgoVTeUVf7209Ef-18" value="+user_registration_id(PK) &lt;br&gt;+last_name&lt;br&gt;&lt;div&gt;+first_anme&lt;br&gt;&lt;/div&gt;&lt;div&gt;+field_id&lt;/div&gt;&lt;div&gt;+user_category_id&lt;/div&gt;&lt;div&gt;+email&lt;/div&gt;" style="align=left;strokeColor=none;fillColor=none;spacingLeft=4;fontSize=12;verticalAlign=top;resizable=0;rotatable=0;part=1;html=1;" parent="rcdddzgoVTeUVf7209Ef-17" vertex="1">
          <mxGeometry y="50" width="160" height="100" as="geometry" />
        </mxCell>
        <object label="lesson " id="rcdddzgoVTeUVf7209Ef-19">
          <mxCell style="swimlane;childLayout=stackLayout;horizontal=1;startSize=50;horizontalStack=0;rounded=1;fontSize=14;fontStyle=0;strokeWidth=2;resizeParent=0;resizeLast=1;shadow=0;dashed=0;align=center;arcSize=4;whiteSpace=wrap;html=1;" parent="1" vertex="1">
            <mxGeometry x="310" y="510" width="180" height="180" as="geometry" />
          </mxCell>
        </object>
        <mxCell id="rcdddzgoVTeUVf7209Ef-20" value="+lesson_id&amp;nbsp; int (PK)&lt;br&gt;+course_id&amp;nbsp; int&lt;br&gt;&lt;div&gt;+instructor_id int&lt;/div&gt;&lt;div&gt;+lesson_content text&lt;/div&gt;&lt;div&gt;+order int&lt;br&gt;&lt;/div&gt;&lt;div&gt;+created_timestamp&lt;/div&gt;&lt;div&gt;+updated_timestamp&lt;/div&gt;&lt;div&gt;+is_published boolean &lt;br&gt;&lt;/div&gt;&lt;div&gt;&lt;br&gt;&lt;/div&gt;" style="align=left;strokeColor=none;fillColor=none;spacingLeft=4;fontSize=12;verticalAlign=top;resizable=0;rotatable=0;part=1;html=1;" parent="rcdddzgoVTeUVf7209Ef-19" vertex="1">
          <mxGeometry y="50" width="180" height="130" as="geometry" />
        </mxCell>
        <object label="section" id="rcdddzgoVTeUVf7209Ef-21">
          <mxCell style="swimlane;childLayout=stackLayout;horizontal=1;startSize=50;horizontalStack=0;rounded=1;fontSize=14;fontStyle=0;strokeWidth=2;resizeParent=0;resizeLast=1;shadow=0;dashed=0;align=center;arcSize=4;whiteSpace=wrap;html=1;" parent="1" vertex="1">
            <mxGeometry x="60" y="780" width="180" height="130" as="geometry" />
          </mxCell>
        </object>
        <mxCell id="rcdddzgoVTeUVf7209Ef-22" value="+section_id&amp;nbsp; int (PK)&lt;br&gt;+lesson_id&amp;nbsp; int (FK)&lt;br&gt;&lt;div&gt;+title varchar&lt;br&gt;&lt;/div&gt;&lt;div&gt;+content text&lt;/div&gt;&lt;div&gt;+order&lt;/div&gt;&lt;div&gt;&amp;nbsp;&lt;br&gt;&lt;/div&gt;&lt;div&gt;&lt;br&gt;&lt;/div&gt;" style="align=left;strokeColor=none;fillColor=none;spacingLeft=4;fontSize=12;verticalAlign=top;resizable=0;rotatable=0;part=1;html=1;" parent="rcdddzgoVTeUVf7209Ef-21" vertex="1">
          <mxGeometry y="50" width="180" height="80" as="geometry" />
        </mxCell>
        <mxCell id="rcdddzgoVTeUVf7209Ef-40" value="" style="edgeStyle=orthogonalEdgeStyle;rounded=0;orthogonalLoop=1;jettySize=auto;html=1;" parent="1" source="rcdddzgoVTeUVf7209Ef-23" target="rcdddzgoVTeUVf7209Ef-20" edge="1">
          <mxGeometry relative="1" as="geometry" />
        </mxCell>
        <object label="instructors" id="rcdddzgoVTeUVf7209Ef-23">
          <mxCell style="swimlane;childLayout=stackLayout;horizontal=1;startSize=50;horizontalStack=0;rounded=1;fontSize=14;fontStyle=0;strokeWidth=2;resizeParent=0;resizeLast=1;shadow=0;dashed=0;align=center;arcSize=4;whiteSpace=wrap;html=1;" parent="1" vertex="1">
            <mxGeometry x="510" y="750" width="180" height="130" as="geometry" />
          </mxCell>
        </object>
        <mxCell id="rcdddzgoVTeUVf7209Ef-24" value="+instructor_id int (PK)&lt;br&gt;+user_reg_id&lt;br&gt;&lt;div&gt;+contact_address&lt;br&gt;&lt;/div&gt;&lt;div&gt;+call_no&lt;br&gt;&lt;/div&gt;&lt;div&gt;&amp;nbsp;&lt;br&gt;&lt;/div&gt;&lt;div&gt;&lt;br&gt;&lt;/div&gt;" style="align=left;strokeColor=none;fillColor=none;spacingLeft=4;fontSize=12;verticalAlign=top;resizable=0;rotatable=0;part=1;html=1;" parent="rcdddzgoVTeUVf7209Ef-23" vertex="1">
          <mxGeometry y="50" width="180" height="80" as="geometry" />
        </mxCell>
        <object label="course_type" id="rcdddzgoVTeUVf7209Ef-25">
          <mxCell style="swimlane;childLayout=stackLayout;horizontal=1;startSize=50;horizontalStack=0;rounded=1;fontSize=14;fontStyle=0;strokeWidth=2;resizeParent=0;resizeLast=1;shadow=0;dashed=0;align=center;arcSize=4;whiteSpace=wrap;html=1;" parent="1" vertex="1">
            <mxGeometry x="380" y="330" width="170" height="90" as="geometry" />
          </mxCell>
        </object>
        <mxCell id="rcdddzgoVTeUVf7209Ef-26" value="+course_type_id&amp;nbsp; int (PK)&lt;br&gt;+course_type&amp;nbsp; varchar &lt;br&gt;&lt;br&gt;&lt;div&gt;&amp;nbsp;&lt;br&gt;&lt;/div&gt;&lt;div&gt;&lt;br&gt;&lt;/div&gt;" style="align=left;strokeColor=none;fillColor=none;spacingLeft=4;fontSize=12;verticalAlign=top;resizable=0;rotatable=0;part=1;html=1;" parent="rcdddzgoVTeUVf7209Ef-25" vertex="1">
          <mxGeometry y="50" width="170" height="40" as="geometry" />
        </mxCell>
        <object label="courses" id="rcdddzgoVTeUVf7209Ef-27">
          <mxCell style="swimlane;childLayout=stackLayout;horizontal=1;startSize=50;horizontalStack=0;rounded=1;fontSize=14;fontStyle=0;strokeWidth=2;resizeParent=0;resizeLast=1;shadow=0;dashed=0;align=center;arcSize=4;whiteSpace=wrap;html=1;" parent="1" vertex="1">
            <mxGeometry x="80" y="390" width="180" height="130" as="geometry" />
          </mxCell>
        </object>
        <mxCell id="rcdddzgoVTeUVf7209Ef-28" value="+course_id&amp;nbsp; int (PK)&lt;br&gt;+course_type_id&amp;nbsp; int (FK)&lt;br&gt;&lt;div&gt;+course_title varchar&lt;br&gt;&lt;/div&gt;&lt;div&gt;+description&lt;br&gt;&lt;/div&gt;&lt;div&gt;+order&lt;/div&gt;&lt;div&gt;&amp;nbsp;&lt;br&gt;&lt;/div&gt;&lt;div&gt;&lt;br&gt;&lt;/div&gt;" style="align=left;strokeColor=none;fillColor=none;spacingLeft=4;fontSize=12;verticalAlign=top;resizable=0;rotatable=0;part=1;html=1;" parent="rcdddzgoVTeUVf7209Ef-27" vertex="1">
          <mxGeometry y="50" width="180" height="80" as="geometry" />
        </mxCell>
        <object label="lesson_progress_tacker" id="rcdddzgoVTeUVf7209Ef-33">
          <mxCell style="swimlane;childLayout=stackLayout;horizontal=1;startSize=50;horizontalStack=0;rounded=1;fontSize=14;fontStyle=0;strokeWidth=2;resizeParent=0;resizeLast=1;shadow=0;dashed=0;align=center;arcSize=4;whiteSpace=wrap;html=1;" parent="1" vertex="1">
            <mxGeometry x="560" y="560" width="220" height="150" as="geometry" />
          </mxCell>
        </object>
        <mxCell id="rcdddzgoVTeUVf7209Ef-34" value="+lesson_progress_id&amp;nbsp; int (PK)&lt;br&gt;+lesson_id&amp;nbsp; int (FK)&lt;br&gt;&lt;div&gt;+user_registration_id int&lt;br&gt;&lt;/div&gt;&lt;div&gt;+last_accessed_timestamp timestamp&lt;br&gt;&lt;/div&gt;&lt;div&gt;+is_completed boolean&lt;/div&gt;&lt;div&gt;+learning_path_id&lt;br&gt;&lt;/div&gt;&lt;div&gt;&amp;nbsp;&lt;br&gt;&lt;/div&gt;&lt;div&gt;&lt;br&gt;&lt;/div&gt;" style="align=left;strokeColor=none;fillColor=none;spacingLeft=4;fontSize=12;verticalAlign=top;resizable=0;rotatable=0;part=1;html=1;" parent="rcdddzgoVTeUVf7209Ef-33" vertex="1">
          <mxGeometry y="50" width="220" height="100" as="geometry" />
        </mxCell>
        <mxCell id="rcdddzgoVTeUVf7209Ef-35" style="edgeStyle=orthogonalEdgeStyle;rounded=0;orthogonalLoop=1;jettySize=auto;html=1;exitX=0;exitY=0;exitDx=0;exitDy=0;entryX=0.5;entryY=0;entryDx=0;entryDy=0;" parent="1" source="rcdddzgoVTeUVf7209Ef-26" target="rcdddzgoVTeUVf7209Ef-27" edge="1">
          <mxGeometry relative="1" as="geometry" />
        </mxCell>
        <mxCell id="rcdddzgoVTeUVf7209Ef-36" value="0,n" style="text;html=1;align=center;verticalAlign=middle;whiteSpace=wrap;rounded=0;" parent="1" vertex="1">
          <mxGeometry x="120" y="360" width="60" height="30" as="geometry" />
        </mxCell>
        <mxCell id="rcdddzgoVTeUVf7209Ef-38" value="1,1" style="text;html=1;align=center;verticalAlign=middle;whiteSpace=wrap;rounded=0;" parent="1" vertex="1">
          <mxGeometry x="330" y="340" width="60" height="30" as="geometry" />
        </mxCell>
        <mxCell id="rcdddzgoVTeUVf7209Ef-42" value="(1,1)" style="text;html=1;align=center;verticalAlign=middle;whiteSpace=wrap;rounded=0;" parent="1" vertex="1">
          <mxGeometry x="450" y="790" width="60" height="30" as="geometry" />
        </mxCell>
        <mxCell id="rcdddzgoVTeUVf7209Ef-45" style="edgeStyle=orthogonalEdgeStyle;rounded=0;orthogonalLoop=1;jettySize=auto;html=1;entryX=0.5;entryY=0;entryDx=0;entryDy=0;" parent="1" source="rcdddzgoVTeUVf7209Ef-18" target="rcdddzgoVTeUVf7209Ef-33" edge="1">
          <mxGeometry relative="1" as="geometry" />
        </mxCell>
        <mxCell id="rcdddzgoVTeUVf7209Ef-50" style="edgeStyle=orthogonalEdgeStyle;rounded=0;orthogonalLoop=1;jettySize=auto;html=1;exitX=0.25;exitY=1;exitDx=0;exitDy=0;entryX=0.539;entryY=0.023;entryDx=0;entryDy=0;entryPerimeter=0;" parent="1" source="rcdddzgoVTeUVf7209Ef-20" target="rcdddzgoVTeUVf7209Ef-21" edge="1">
          <mxGeometry relative="1" as="geometry" />
        </mxCell>
        <mxCell id="rcdddzgoVTeUVf7209Ef-51" value="0,1" style="text;html=1;align=center;verticalAlign=middle;whiteSpace=wrap;rounded=0;" parent="1" vertex="1">
          <mxGeometry x="140" y="757" width="60" height="30" as="geometry" />
        </mxCell>
        <mxCell id="rcdddzgoVTeUVf7209Ef-52" value="0,n" style="text;html=1;align=center;verticalAlign=middle;whiteSpace=wrap;rounded=0;" parent="1" vertex="1">
          <mxGeometry x="390" y="690" width="60" height="40" as="geometry" />
        </mxCell>
        <mxCell id="rcdddzgoVTeUVf7209Ef-46" style="edgeStyle=orthogonalEdgeStyle;rounded=0;orthogonalLoop=1;jettySize=auto;html=1;exitX=1;exitY=0.5;exitDx=0;exitDy=0;" parent="1" source="rcdddzgoVTeUVf7209Ef-19" target="rcdddzgoVTeUVf7209Ef-34" edge="1">
          <mxGeometry relative="1" as="geometry" />
        </mxCell>
        <mxCell id="rcdddzgoVTeUVf7209Ef-57" value="0,m" style="text;html=1;align=center;verticalAlign=middle;whiteSpace=wrap;rounded=0;" parent="1" vertex="1">
          <mxGeometry x="512" y="649" width="60" height="30" as="geometry" />
        </mxCell>
        <mxCell id="rcdddzgoVTeUVf7209Ef-60" value="0,n" style="text;html=1;align=center;verticalAlign=middle;whiteSpace=wrap;rounded=0;" parent="1" vertex="1">
          <mxGeometry x="310" y="685" width="60" height="40" as="geometry" />
        </mxCell>
        <mxCell id="rcdddzgoVTeUVf7209Ef-61" value="0,n" style="text;html=1;align=center;verticalAlign=middle;whiteSpace=wrap;rounded=0;" parent="1" vertex="1">
          <mxGeometry x="660" y="530" width="60" height="40" as="geometry" />
        </mxCell>
        <mxCell id="rcdddzgoVTeUVf7209Ef-62" value="1,1" style="text;html=1;align=center;verticalAlign=middle;whiteSpace=wrap;rounded=0;" parent="1" vertex="1">
          <mxGeometry x="680" y="456" width="50" height="40" as="geometry" />
        </mxCell>
        <mxCell id="rcdddzgoVTeUVf7209Ef-64" value="1,1" style="text;html=1;align=center;verticalAlign=middle;whiteSpace=wrap;rounded=0;" parent="1" vertex="1">
          <mxGeometry x="550" y="217" width="60" height="30" as="geometry" />
        </mxCell>
        <mxCell id="rcdddzgoVTeUVf7209Ef-65" value="1,1" style="text;html=1;align=center;verticalAlign=middle;whiteSpace=wrap;rounded=0;" parent="1" vertex="1">
          <mxGeometry x="746" y="288" width="60" height="30" as="geometry" />
        </mxCell>
        <mxCell id="15M1-edb_IW5XRDmWn_Y-1" value="0,n" style="text;html=1;align=center;verticalAlign=middle;whiteSpace=wrap;rounded=0;" vertex="1" parent="1">
          <mxGeometry x="210" y="615" width="60" height="40" as="geometry" />
        </mxCell>
        <mxCell id="15M1-edb_IW5XRDmWn_Y-2" value="1,1" style="text;html=1;align=center;verticalAlign=middle;whiteSpace=wrap;rounded=0;" vertex="1" parent="1">
          <mxGeometry x="265" y="550" width="60" height="40" as="geometry" />
        </mxCell>
        <mxCell id="15M1-edb_IW5XRDmWn_Y-50" value="(0,n)" style="text;html=1;align=center;verticalAlign=middle;whiteSpace=wrap;rounded=0;" vertex="1" parent="1">
          <mxGeometry x="650" y="920" width="60" height="30" as="geometry" />
        </mxCell>
        <mxCell id="15M1-edb_IW5XRDmWn_Y-52" value="(1,1)" style="text;html=1;align=center;verticalAlign=middle;whiteSpace=wrap;rounded=0;" vertex="1" parent="1">
          <mxGeometry x="792" y="362" width="60" height="30" as="geometry" />
        </mxCell>
        <mxCell id="15M1-edb_IW5XRDmWn_Y-53" value="(1,1)" style="text;html=1;align=center;verticalAlign=middle;whiteSpace=wrap;rounded=0;" vertex="1" parent="1">
          <mxGeometry x="840" y="242" width="60" height="30" as="geometry" />
        </mxCell>
        <mxCell id="15M1-edb_IW5XRDmWn_Y-54" style="edgeStyle=orthogonalEdgeStyle;rounded=0;orthogonalLoop=1;jettySize=auto;html=1;entryX=0;entryY=0.5;entryDx=0;entryDy=0;" edge="1" parent="1" source="rcdddzgoVTeUVf7209Ef-18" target="15M1-edb_IW5XRDmWn_Y-16">
          <mxGeometry relative="1" as="geometry" />
        </mxCell>
        <mxCell id="15M1-edb_IW5XRDmWn_Y-57" style="edgeStyle=orthogonalEdgeStyle;rounded=0;orthogonalLoop=1;jettySize=auto;html=1;entryX=0;entryY=0.25;entryDx=0;entryDy=0;exitX=0.984;exitY=0.918;exitDx=0;exitDy=0;exitPerimeter=0;" edge="1" parent="1" source="rcdddzgoVTeUVf7209Ef-18" target="15M1-edb_IW5XRDmWn_Y-41">
          <mxGeometry relative="1" as="geometry">
            <mxPoint x="810" y="450" as="sourcePoint" />
            <Array as="points">
              <mxPoint x="810" y="452" />
              <mxPoint x="810" y="560" />
              <mxPoint x="1110" y="560" />
              <mxPoint x="1110" y="580" />
              <mxPoint x="1210" y="580" />
              <mxPoint x="1210" y="588" />
            </Array>
          </mxGeometry>
        </mxCell>
        <mxCell id="15M1-edb_IW5XRDmWn_Y-55" value="(1,1)" style="text;html=1;align=center;verticalAlign=middle;whiteSpace=wrap;rounded=0;" vertex="1" parent="1">
          <mxGeometry x="780" y="410" width="60" height="30" as="geometry" />
        </mxCell>
        <mxCell id="15M1-edb_IW5XRDmWn_Y-56" value="(0,n)" style="text;html=1;align=center;verticalAlign=middle;whiteSpace=wrap;rounded=0;" vertex="1" parent="1">
          <mxGeometry x="827" y="690" width="60" height="30" as="geometry" />
        </mxCell>
        <mxCell id="15M1-edb_IW5XRDmWn_Y-58" value="(1,1)" style="text;html=1;align=center;verticalAlign=middle;whiteSpace=wrap;rounded=0;" vertex="1" parent="1">
          <mxGeometry x="770" y="456" width="60" height="30" as="geometry" />
        </mxCell>
        <mxCell id="15M1-edb_IW5XRDmWn_Y-59" value="(1,n)" style="text;html=1;align=center;verticalAlign=middle;whiteSpace=wrap;rounded=0;" vertex="1" parent="1">
          <mxGeometry x="1108" y="685" width="60" height="30" as="geometry" />
        </mxCell>
        <mxCell id="15M1-edb_IW5XRDmWn_Y-62" style="edgeStyle=orthogonalEdgeStyle;rounded=0;orthogonalLoop=1;jettySize=auto;html=1;entryX=0;entryY=0.5;entryDx=0;entryDy=0;exitX=0;exitY=0.25;exitDx=0;exitDy=0;" edge="1" parent="1" source="rcdddzgoVTeUVf7209Ef-18" target="15M1-edb_IW5XRDmWn_Y-10">
          <mxGeometry relative="1" as="geometry" />
        </mxCell>
        <mxCell id="15M1-edb_IW5XRDmWn_Y-63" value="1,1" style="text;html=1;align=center;verticalAlign=middle;whiteSpace=wrap;rounded=0;" vertex="1" parent="1">
          <mxGeometry x="610" y="155" width="60" height="30" as="geometry" />
        </mxCell>
        <mxCell id="15M1-edb_IW5XRDmWn_Y-64" value="1,1" style="text;html=1;align=center;verticalAlign=middle;whiteSpace=wrap;rounded=0;" vertex="1" parent="1">
          <mxGeometry x="590" y="390" width="60" height="30" as="geometry" />
        </mxCell>
        <mxCell id="15M1-edb_IW5XRDmWn_Y-65" style="edgeStyle=orthogonalEdgeStyle;rounded=0;orthogonalLoop=1;jettySize=auto;html=1;entryX=1;entryY=0.5;entryDx=0;entryDy=0;" edge="1" parent="1" source="15M1-edb_IW5XRDmWn_Y-20" target="15M1-edb_IW5XRDmWn_Y-38">
          <mxGeometry relative="1" as="geometry" />
        </mxCell>
        <mxCell id="15M1-edb_IW5XRDmWn_Y-66" style="edgeStyle=orthogonalEdgeStyle;rounded=0;orthogonalLoop=1;jettySize=auto;html=1;entryX=1;entryY=0.75;entryDx=0;entryDy=0;" edge="1" parent="1" source="15M1-edb_IW5XRDmWn_Y-39" target="15M1-edb_IW5XRDmWn_Y-43">
          <mxGeometry relative="1" as="geometry" />
        </mxCell>
        <mxCell id="15M1-edb_IW5XRDmWn_Y-68" style="edgeStyle=orthogonalEdgeStyle;rounded=0;orthogonalLoop=1;jettySize=auto;html=1;" edge="1" parent="1" source="15M1-edb_IW5XRDmWn_Y-45" target="15M1-edb_IW5XRDmWn_Y-46">
          <mxGeometry relative="1" as="geometry" />
        </mxCell>
        <mxCell id="15M1-edb_IW5XRDmWn_Y-69" style="edgeStyle=orthogonalEdgeStyle;rounded=0;orthogonalLoop=1;jettySize=auto;html=1;entryX=0;entryY=0.75;entryDx=0;entryDy=0;" edge="1" parent="1" source="rcdddzgoVTeUVf7209Ef-24" target="15M1-edb_IW5XRDmWn_Y-14">
          <mxGeometry relative="1" as="geometry">
            <Array as="points">
              <mxPoint x="820" y="840" />
              <mxPoint x="820" y="510" />
            </Array>
          </mxGeometry>
        </mxCell>
        <mxCell id="15M1-edb_IW5XRDmWn_Y-70" style="edgeStyle=orthogonalEdgeStyle;rounded=0;orthogonalLoop=1;jettySize=auto;html=1;entryX=0;entryY=0.75;entryDx=0;entryDy=0;" edge="1" parent="1" source="15M1-edb_IW5XRDmWn_Y-12" target="rcdddzgoVTeUVf7209Ef-34">
          <mxGeometry relative="1" as="geometry" />
        </mxCell>
      </root>
    </mxGraphModel>
  </diagram>
</mxfile>
